<?xml version="1.0" encoding="utf-8"?>
<!-- Generator: Adobe Illustrator 18.0.0, SVG Export Plug-In . SVG Version: 6.00 Build 0)  -->
<!DOCTYPE svg PUBLIC "-//W3C//DTD SVG 1.1//EN" "http://www.w3.org/Graphics/SVG/1.1/DTD/svg11.dtd">
<svg version="1.1" id="ecommerce_1_" xmlns="http://www.w3.org/2000/svg" xmlns:xlink="http://www.w3.org/1999/xlink" x="0px"
	 y="0px" viewBox="0 0 115 115" style="enable-background:new 0 0 115 115;" xml:space="preserve">
<style type="text/css">
	.st0{fill:#FFEEAD;}
	.st1{fill:#C9B77D;}
	.st2{fill:#99734A;}
	.st3{fill:#FF6F69;}
	.st4{fill:#96CEB4;}
	.st5{fill:none;}
	.st6{fill:#AA9865;}
	.st7{fill:#71A58A;}
	.st8{fill:#FFCC5C;}
	.st9{fill:#825E3B;}
	.st10{fill:#639376;}
	.st11{fill:#E05858;}
	.st12{fill:#C1821E;}
	.st13{fill:#D6A041;}
	.st14{fill:#B28559;}
	.st15{fill:#BF4343;}
	.st16{fill:#D3C089;}
	.st17{fill:#7C5C3C;}
	.st18{fill:#FDCC5C;}
	.st19{fill:#FFFFFF;}
</style>
<g id="site_traffic_analitics_1_">
	<g>
		<g>
			<g>
				<path class="st7" d="M57.501,0v21.157c7.216,0,13.935,2.112,19.589,5.739L88.504,9.065C79.187,3.106,68.395,0.009,57.501,0z"/>
			</g>
		</g>
		<g>
			<g>
				<path class="st2" d="M104.03,23.702c-4.35-5.988-9.647-10.875-15.527-14.637L77.09,26.896
					c7.977,5.117,13.82,13.26,15.907,22.814l20.678-4.538C112.028,37.649,108.847,30.333,104.03,23.702z"/>
			</g>
		</g>
		<g>
			<g>
				<path class="st0" d="M83.198,83.198c-6.576,6.577-15.662,10.645-25.698,10.645V115c11.734,0.009,23.578-3.547,33.798-10.971
					c2.478-1.8,4.766-3.765,6.869-5.862L83.198,83.198z"/>
			</g>
		</g>
		<g>
			<g>
				<path class="st0" d="M57.5,93.842c-7.216,0-13.935-2.112-19.589-5.738l-11.413,17.83c9.317,5.96,20.108,9.056,31.003,9.066
					L57.5,93.842L57.5,93.842z"/>
			</g>
		</g>
		<g>
			<g>
				<path class="st4" d="M23.703,10.971c-2.478,1.8-4.766,3.765-6.869,5.862C2.762,30.871-2.793,51.003,1.327,69.827
					c1.647,7.524,4.828,14.84,9.645,21.471c4.35,5.988,9.647,10.876,15.527,14.637l11.413-17.83
					C27.839,81.643,21.158,70.355,21.158,57.5c0-20.071,16.271-36.343,36.342-36.343h0.001V0
					C45.767-0.01,33.923,3.547,23.703,10.971z"/>
			</g>
		</g>
		<g>
			<g>
				<path class="st8" d="M87.475,78.046c-1.268,1.846-2.698,3.573-4.276,5.152l14.969,14.969c2.538-2.532,4.789-5.268,6.767-8.154
					L87.475,78.046z"/>
			</g>
		</g>
		<g>
			<g>
				<path class="st3" d="M113.675,45.173l-20.678,4.538c0.548,2.51,0.846,5.115,0.846,7.789c0,7.626-2.354,14.7-6.368,20.546
					l17.459,11.967C113.919,76.903,117.052,60.601,113.675,45.173z"/>
			</g>
		</g>
	</g>
	<g>
		<g>
			<path class="st2" d="M38.642,47.703h-0.298c-1.673,0-3.041,1.368-3.041,3.041v25.808c0,1.673,1.368,3.041,3.041,3.041h0.298
				c1.673,0,3.041-1.368,3.041-3.041V50.744C41.683,49.072,40.314,47.703,38.642,47.703z"/>
		</g>
	</g>
	<g>
		<g>
			<path class="st2" d="M50.87,57.367h-0.298c-1.673,0-3.041,1.368-3.041,3.041v16.145c0,1.673,1.368,3.041,3.041,3.041h0.298
				c1.673,0,3.041-1.368,3.041-3.041V60.408C53.911,58.735,52.542,57.367,50.87,57.367z"/>
		</g>
	</g>
	<g>
		<g>
			<path class="st2" d="M63.097,28.376H62.8c-1.673,0-3.041,1.368-3.041,3.041v45.136c0,1.673,1.368,3.041,3.041,3.041h0.298
				c1.673,0,3.041-1.368,3.041-3.041V31.417C66.138,29.744,64.77,28.376,63.097,28.376z"/>
		</g>
	</g>
	<g>
		<g>
			<path class="st2" d="M75.325,38.039h-0.298c-1.673,0-3.041,1.368-3.041,3.041v35.472c0,1.673,1.368,3.041,3.041,3.041h0.298
				c1.673,0,3.041-1.368,3.041-3.041V41.08C78.366,39.408,76.998,38.039,75.325,38.039z"/>
		</g>
	</g>
</g>
</svg>
